<?xml version="1.0" encoding="UTF-8"?>
<svg version="1.1" xmlns="http://www.w3.org/2000/svg" width="273" height="202">
<path d="M0 0 C90.09 0 180.18 0 273 0 C273 66.66 273 133.32 273 202 C182.91 202 92.82 202 0 202 C0 135.34 0 68.68 0 0 Z " fill="#FEFEFE" transform="translate(0,0)"/>
<path d="M0 0 C2.00550708 1.9322837 3.43734165 3.6849506 5 6 C4.0479279 7.00596297 3.08812654 8.00461563 2.125 9 C1.59132813 9.556875 1.05765625 10.11375 0.5078125 10.6875 C-1 12 -1 12 -3 12 C-3.495 13.485 -3.495 13.485 -4 15 C-6.5625 16.1875 -6.5625 16.1875 -9 17 C-9.40089844 16.61328125 -9.80179687 16.2265625 -10.21484375 15.828125 C-18.45499548 8.27932386 -26.02578593 6.13642946 -37.1171875 6.6171875 C-45.605402 7.45405372 -52.17179076 10.76185555 -58 17 C-58.33 17.66 -58.66 18.32 -59 19 C-59.66 19 -60.32 19 -61 19 C-65.88095313 32.47143065 -68.13431808 45.5500571 -62.9375 59.4375 C-58.47839338 68.8624299 -52.43711054 73.37621545 -42.83203125 77.08984375 C-31.38583588 80.76841412 -19.29599705 79.62529933 -8 76 C-7.06414062 75.70996094 -6.12828125 75.41992188 -5.1640625 75.12109375 C0.72369584 73.15026148 5.79178199 70.54099212 11.00390625 67.171875 C13 66 13 66 15 66 C15 65.34 15 64.68 15 64 C17 62.375 17 62.375 19 61 C19.66 61.33 20.32 61.66 21 62 C9.81138254 77.57000084 -3.20391797 91.67335217 -22.8203125 95.55859375 C-38.8964194 97.79028918 -53.03342183 94.87740122 -66.21875 85.40625 C-78.43535823 75.4450156 -84.74376367 61.25965577 -86.32421875 45.8359375 C-86.86159183 30.90067199 -82.42212307 17.16673143 -72.75 5.8125 C-53.49238571 -14.75233646 -22.35331431 -16.74133977 0 0 Z " fill="#BBBABA" transform="translate(212,86)"/>
<path d="M0 0 C5.94 0 11.88 0 18 0 C21.43380224 7.17058703 24.25273447 14.37337705 26.83837891 21.87646484 C28.34901796 26.23351703 30.00875349 30.429695 31.953125 34.61328125 C33.93633319 39.13469991 35.58133412 43.79384253 37.296875 48.421875 C39.16485908 53.46057439 41.08172355 58.48027494 43 63.5 C45.16935438 69.17831719 47.32607994 74.86046408 49.44287109 80.55859375 C52.12596795 87.77920326 54.96852807 94.9176231 58 102 C59.32 99.03 60.64 96.06 62 93 C62.33 93 62.66 93 63 93 C63.06731323 93.83023682 63.06731323 93.83023682 63.13598633 94.67724609 C64.03589748 108.10859071 64.03589748 108.10859071 67.51171875 121.02734375 C68.69706551 125.81614466 66.15214052 130.84811918 64.625 135.375 C64.41617188 136.00921875 64.20734375 136.6434375 63.9921875 137.296875 C62.53940515 141.63750519 60.85000038 145.81315703 59 150 C58.34 150 57.68 150 57 150 C56.74831055 149.32533691 56.49662109 148.65067383 56.23730469 147.95556641 C55.07607058 144.84492784 53.91304548 141.73496173 52.75 138.625 C52.35425781 137.56410156 51.95851562 136.50320312 51.55078125 135.41015625 C49.42007144 129.7166202 47.23856327 124.05047091 44.96484375 118.41259766 C43.30121106 114.25267402 41.71470784 110.06361002 40.125 105.875 C39.60401733 104.50541138 39.60401733 104.50541138 39.07250977 103.1081543 C37.01087075 97.68241387 34.96756227 92.25011757 32.9375 86.8125 C28.91740262 76.06299179 24.76683532 65.36573007 20.47265625 54.72265625 C20.03276367 53.63073975 19.59287109 52.53882324 19.13964844 51.41381836 C18.28034832 49.28437908 17.41791919 47.15619868 16.55175781 45.02954102 C14.1021299 38.96087716 11.8923415 32.864884 9.89501953 26.63208008 C8.81779722 23.4641767 7.48228645 20.47231604 6.08203125 17.4375 C0 3.73646209 0 3.73646209 0 0 Z " fill="#22636E" transform="translate(58,29)"/>
<path d="M0 0 C6.27 0 12.54 0 19 0 C10.21378494 25.37084585 10.21378494 25.37084585 6 36 C5.60296875 37.01320312 5.2059375 38.02640625 4.796875 39.0703125 C2.42667089 44.49017923 0.29033398 47.17534836 -5.23046875 49.4765625 C-7 50 -7 50 -9 50 C-9 50.66 -9 51.32 -9 52 C-10.41984443 52.91275713 -11.84104213 53.82348851 -13.26953125 54.72265625 C-16.8465163 57.36300413 -20.00983281 61.01966562 -22 65 C-22.66 64.67 -23.32 64.34 -24 64 C-23.64808594 63.06542969 -23.29617187 62.13085938 -22.93359375 61.16796875 C-20.04972839 53.49811407 -17.19530201 45.81846654 -14.375 38.125 C-12.63875013 33.39312417 -10.90298449 28.66800469 -9 24 C-7.68447165 20.74347247 -6.4179462 17.47507217 -5.203125 14.1796875 C-4.91083008 13.38804199 -4.61853516 12.59639648 -4.31738281 11.78076172 C-2.87529359 7.85492778 -1.43815741 3.92727599 0 0 Z " fill="#22636E" transform="translate(155,29)"/>
</svg>
